<mxfile host="Electron" modified="2023-11-15T18:07:21.941Z" agent="Mozilla/5.0 (Macintosh; Intel Mac OS X 10_15_7) AppleWebKit/537.36 (KHTML, like Gecko) draw.io/22.0.3 Chrome/114.0.5735.289 Electron/25.8.4 Safari/537.36" etag="re4Hayr6F0d0NI4DQ5cM" version="22.0.3" type="device">
  <diagram id="jrXY4hO8n29qiqvIHeQG" name="Page-1">
    <mxGraphModel dx="1468" dy="2318" grid="1" gridSize="10" guides="1" tooltips="1" connect="1" arrows="1" fold="1" page="0" pageScale="1" pageWidth="827" pageHeight="1169" background="#ffffff" math="0" shadow="0">
      <root>
        <mxCell id="0" />
        <mxCell id="1" parent="0" />
        <mxCell id="vX37YWDCJLkcGAk2SmuX-3" value="AWS Cloud" style="points=[[0,0],[0.25,0],[0.5,0],[0.75,0],[1,0],[1,0.25],[1,0.5],[1,0.75],[1,1],[0.75,1],[0.5,1],[0.25,1],[0,1],[0,0.75],[0,0.5],[0,0.25]];outlineConnect=0;gradientColor=none;html=1;whiteSpace=wrap;fontSize=15;fontStyle=0;shape=mxgraph.aws4.group;grIcon=mxgraph.aws4.group_aws_cloud_alt;strokeColor=#232F3E;verticalAlign=top;align=left;spacingLeft=30;fontColor=#232F3E;dashed=0;fillColor=none;strokeWidth=3;" parent="1" vertex="1">
          <mxGeometry x="100" y="-1020" width="1100" height="1120" as="geometry" />
        </mxCell>
        <mxCell id="vX37YWDCJLkcGAk2SmuX-21" value="&lt;font color=&quot;#248814&quot; style=&quot;font-size: 15px;&quot;&gt;VPC&lt;/font&gt;" style="points=[[0,0],[0.25,0],[0.5,0],[0.75,0],[1,0],[1,0.25],[1,0.5],[1,0.75],[1,1],[0.75,1],[0.5,1],[0.25,1],[0,1],[0,0.75],[0,0.5],[0,0.25]];outlineConnect=0;gradientColor=none;html=1;whiteSpace=wrap;fontSize=15;fontStyle=0;shape=mxgraph.aws4.group;grIcon=mxgraph.aws4.group_vpc;strokeColor=#248814;fillColor=none;verticalAlign=top;align=left;spacingLeft=30;dashed=0;fontColor=#ea711a;strokeWidth=3;" parent="1" vertex="1">
          <mxGeometry x="110" y="-870" width="860" height="950" as="geometry" />
        </mxCell>
        <mxCell id="vX37YWDCJLkcGAk2SmuX-30" value="Availability Zone: us-west-2b" style="strokeColor=#147EBA;verticalAlign=top;fontStyle=0;fontColor=#147EBA;strokeWidth=2;fillColor=none;fontSize=15;" parent="1" vertex="1">
          <mxGeometry x="580" y="-690" width="360" height="750" as="geometry" />
        </mxCell>
        <mxCell id="vX37YWDCJLkcGAk2SmuX-29" value="Availability Zone: us-west-2a" style="strokeColor=#147EBA;verticalAlign=top;fontStyle=0;fontColor=#147EBA;strokeWidth=2;fillColor=none;fontSize=15;" parent="1" vertex="1">
          <mxGeometry x="150" y="-690" width="360" height="750" as="geometry" />
        </mxCell>
        <mxCell id="5G6M97Ru5O6IGqaMy1Rf-42" value="Aurora &#xa;DB Cluster" style="fillColor=none;strokeColor=#c630cd;dashed=1;verticalAlign=top;fontStyle=0;fontColor=#c630cd;strokeWidth=2;fontSize=15;" parent="1" vertex="1">
          <mxGeometry x="160" y="-160" width="770" height="210" as="geometry" />
        </mxCell>
        <mxCell id="5G6M97Ru5O6IGqaMy1Rf-26" value="db_2a&amp;nbsp;" style="points=[[0,0],[0.25,0],[0.5,0],[0.75,0],[1,0],[1,0.25],[1,0.5],[1,0.75],[1,1],[0.75,1],[0.5,1],[0.25,1],[0,1],[0,0.75],[0,0.5],[0,0.25]];outlineConnect=0;gradientColor=none;html=1;whiteSpace=wrap;fontSize=15;fontStyle=0;shape=mxgraph.aws4.group;grIcon=mxgraph.aws4.group_security_group;grStroke=0;strokeColor=#147EBA;fillColor=#E6F2F8;verticalAlign=top;align=left;spacingLeft=30;fontColor=#147EBA;dashed=0;strokeWidth=1;" parent="1" vertex="1">
          <mxGeometry x="170" y="-140" width="330" height="170" as="geometry" />
        </mxCell>
        <mxCell id="5G6M97Ru5O6IGqaMy1Rf-52" value="" style="outlineConnect=0;gradientColor=none;dashed=0;verticalLabelPosition=bottom;verticalAlign=top;align=center;html=1;fontSize=15;fontStyle=0;aspect=fixed;shape=mxgraph.aws4.resourceIcon;resIcon=mxgraph.aws4.database;fillColor=none;strokeColor=#3334B9;fontColor=#3334B9;strokeWidth=1;" parent="1" vertex="1">
          <mxGeometry x="285" y="-100" width="60" height="60" as="geometry" />
        </mxCell>
        <mxCell id="vX37YWDCJLkcGAk2SmuX-2" value="Aurora MySQL Instance" style="sketch=0;points=[[0,0,0],[0.25,0,0],[0.5,0,0],[0.75,0,0],[1,0,0],[0,1,0],[0.25,1,0],[0.5,1,0],[0.75,1,0],[1,1,0],[0,0.25,0],[0,0.5,0],[0,0.75,0],[1,0.25,0],[1,0.5,0],[1,0.75,0]];outlineConnect=0;fontColor=#232F3E;fillColor=#C925D1;strokeColor=#ffffff;dashed=0;verticalLabelPosition=bottom;verticalAlign=top;align=center;html=1;fontSize=15;fontStyle=0;aspect=fixed;shape=mxgraph.aws4.resourceIcon;resIcon=mxgraph.aws4.aurora;strokeWidth=1;" parent="1" vertex="1">
          <mxGeometry x="285" y="-99" width="60" height="60" as="geometry" />
        </mxCell>
        <mxCell id="vX37YWDCJLkcGAk2SmuX-7" value="db_2b" style="points=[[0,0],[0.25,0],[0.5,0],[0.75,0],[1,0],[1,0.25],[1,0.5],[1,0.75],[1,1],[0.75,1],[0.5,1],[0.25,1],[0,1],[0,0.75],[0,0.5],[0,0.25]];outlineConnect=0;gradientColor=none;html=1;whiteSpace=wrap;fontSize=15;fontStyle=0;shape=mxgraph.aws4.group;grIcon=mxgraph.aws4.group_security_group;grStroke=0;strokeColor=#147EBA;fillColor=#E6F2F8;verticalAlign=top;align=left;spacingLeft=30;fontColor=#147EBA;dashed=0;strokeWidth=1;" parent="1" vertex="1">
          <mxGeometry x="590" y="-140" width="330" height="170" as="geometry" />
        </mxCell>
        <mxCell id="vX37YWDCJLkcGAk2SmuX-8" value="" style="outlineConnect=0;gradientColor=none;dashed=0;verticalLabelPosition=bottom;verticalAlign=top;align=center;html=1;fontSize=15;fontStyle=0;aspect=fixed;shape=mxgraph.aws4.resourceIcon;resIcon=mxgraph.aws4.database;fillColor=none;strokeColor=#3334B9;fontColor=#3334B9;strokeWidth=1;" parent="1" vertex="1">
          <mxGeometry x="705" y="-100" width="60" height="60" as="geometry" />
        </mxCell>
        <mxCell id="vX37YWDCJLkcGAk2SmuX-9" value="Aurora MySQL Instance" style="sketch=0;points=[[0,0,0],[0.25,0,0],[0.5,0,0],[0.75,0,0],[1,0,0],[0,1,0],[0.25,1,0],[0.5,1,0],[0.75,1,0],[1,1,0],[0,0.25,0],[0,0.5,0],[0,0.75,0],[1,0.25,0],[1,0.5,0],[1,0.75,0]];outlineConnect=0;fontColor=#232F3E;fillColor=#C925D1;strokeColor=#ffffff;dashed=0;verticalLabelPosition=bottom;verticalAlign=top;align=center;html=1;fontSize=15;fontStyle=0;aspect=fixed;shape=mxgraph.aws4.resourceIcon;resIcon=mxgraph.aws4.aurora;strokeWidth=1;" parent="1" vertex="1">
          <mxGeometry x="705" y="-99" width="60" height="60" as="geometry" />
        </mxCell>
        <mxCell id="vX37YWDCJLkcGAk2SmuX-11" value="Auto&#xa;Scaling&#xa;Group" style="fillColor=none;strokeColor=#ea711a;dashed=1;verticalAlign=top;fontStyle=0;fontColor=#ea711a;strokeWidth=2;fontSize=15;" parent="1" vertex="1">
          <mxGeometry x="160" y="-420" width="770" height="210" as="geometry" />
        </mxCell>
        <mxCell id="vX37YWDCJLkcGAk2SmuX-12" value="" style="sketch=0;points=[[0,0,0],[0.25,0,0],[0.5,0,0],[0.75,0,0],[1,0,0],[0,1,0],[0.25,1,0],[0.5,1,0],[0.75,1,0],[1,1,0],[0,0.25,0],[0,0.5,0],[0,0.75,0],[1,0.25,0],[1,0.5,0],[1,0.75,0]];outlineConnect=0;fontColor=#232F3E;fillColor=#ED7100;strokeColor=#ffffff;dashed=0;verticalLabelPosition=bottom;verticalAlign=top;align=center;html=1;fontSize=15;fontStyle=0;aspect=fixed;shape=mxgraph.aws4.resourceIcon;resIcon=mxgraph.aws4.auto_scaling2;strokeWidth=1;" parent="1" vertex="1">
          <mxGeometry x="511" y="-360" width="60" height="60" as="geometry" />
        </mxCell>
        <mxCell id="vX37YWDCJLkcGAk2SmuX-13" value="private_2a" style="points=[[0,0],[0.25,0],[0.5,0],[0.75,0],[1,0],[1,0.25],[1,0.5],[1,0.75],[1,1],[0.75,1],[0.5,1],[0.25,1],[0,1],[0,0.75],[0,0.5],[0,0.25]];outlineConnect=0;gradientColor=none;html=1;whiteSpace=wrap;fontSize=15;fontStyle=0;shape=mxgraph.aws4.group;grIcon=mxgraph.aws4.group_security_group;grStroke=0;strokeColor=#147EBA;fillColor=#E6F2F8;verticalAlign=top;align=left;spacingLeft=30;fontColor=#147EBA;dashed=0;strokeWidth=1;" parent="1" vertex="1">
          <mxGeometry x="170" y="-400" width="330" height="170" as="geometry" />
        </mxCell>
        <mxCell id="vX37YWDCJLkcGAk2SmuX-14" value="private_2b" style="points=[[0,0],[0.25,0],[0.5,0],[0.75,0],[1,0],[1,0.25],[1,0.5],[1,0.75],[1,1],[0.75,1],[0.5,1],[0.25,1],[0,1],[0,0.75],[0,0.5],[0,0.25]];outlineConnect=0;gradientColor=none;html=1;whiteSpace=wrap;fontSize=15;fontStyle=0;shape=mxgraph.aws4.group;grIcon=mxgraph.aws4.group_security_group;grStroke=0;strokeColor=#147EBA;fillColor=#E6F2F8;verticalAlign=top;align=left;spacingLeft=30;fontColor=#147EBA;dashed=0;strokeWidth=1;" parent="1" vertex="1">
          <mxGeometry x="590" y="-400" width="330" height="170" as="geometry" />
        </mxCell>
        <mxCell id="vX37YWDCJLkcGAk2SmuX-15" value="EB EC2 Instances" style="sketch=0;points=[[0,0,0],[0.25,0,0],[0.5,0,0],[0.75,0,0],[1,0,0],[0,1,0],[0.25,1,0],[0.5,1,0],[0.75,1,0],[1,1,0],[0,0.25,0],[0,0.5,0],[0,0.75,0],[1,0.25,0],[1,0.5,0],[1,0.75,0]];outlineConnect=0;fontColor=#232F3E;fillColor=#ED7100;strokeColor=#ffffff;dashed=0;verticalLabelPosition=bottom;verticalAlign=top;align=center;html=1;fontSize=15;fontStyle=0;aspect=fixed;shape=mxgraph.aws4.resourceIcon;resIcon=mxgraph.aws4.ec2;strokeWidth=1;" parent="1" vertex="1">
          <mxGeometry x="285" y="-360" width="60" height="60" as="geometry" />
        </mxCell>
        <mxCell id="vX37YWDCJLkcGAk2SmuX-16" value="EB EC2 Instances" style="sketch=0;points=[[0,0,0],[0.25,0,0],[0.5,0,0],[0.75,0,0],[1,0,0],[0,1,0],[0.25,1,0],[0.5,1,0],[0.75,1,0],[1,1,0],[0,0.25,0],[0,0.5,0],[0,0.75,0],[1,0.25,0],[1,0.5,0],[1,0.75,0]];outlineConnect=0;fontColor=#232F3E;fillColor=#ED7100;strokeColor=#ffffff;dashed=0;verticalLabelPosition=bottom;verticalAlign=top;align=center;html=1;fontSize=15;fontStyle=0;aspect=fixed;shape=mxgraph.aws4.resourceIcon;resIcon=mxgraph.aws4.ec2;strokeWidth=1;" parent="1" vertex="1">
          <mxGeometry x="705" y="-360" width="60" height="60" as="geometry" />
        </mxCell>
        <mxCell id="vX37YWDCJLkcGAk2SmuX-19" value="public_2a" style="points=[[0,0],[0.25,0],[0.5,0],[0.75,0],[1,0],[1,0.25],[1,0.5],[1,0.75],[1,1],[0.75,1],[0.5,1],[0.25,1],[0,1],[0,0.75],[0,0.5],[0,0.25]];outlineConnect=0;gradientColor=none;html=1;whiteSpace=wrap;fontSize=15;fontStyle=0;shape=mxgraph.aws4.group;grIcon=mxgraph.aws4.group_security_group;grStroke=0;strokeColor=#248814;fillColor=#E9F3E6;verticalAlign=top;align=left;spacingLeft=30;fontColor=#248814;dashed=0;strokeWidth=1;" parent="1" vertex="1">
          <mxGeometry x="160" y="-662.14" width="340" height="172.14" as="geometry" />
        </mxCell>
        <mxCell id="vX37YWDCJLkcGAk2SmuX-20" value="public_2b" style="points=[[0,0],[0.25,0],[0.5,0],[0.75,0],[1,0],[1,0.25],[1,0.5],[1,0.75],[1,1],[0.75,1],[0.5,1],[0.25,1],[0,1],[0,0.75],[0,0.5],[0,0.25]];outlineConnect=0;gradientColor=none;html=1;whiteSpace=wrap;fontSize=15;fontStyle=0;shape=mxgraph.aws4.group;grIcon=mxgraph.aws4.group_security_group;grStroke=0;strokeColor=#248814;fillColor=#E9F3E6;verticalAlign=top;align=left;spacingLeft=30;fontColor=#248814;dashed=0;strokeWidth=1;" parent="1" vertex="1">
          <mxGeometry x="590" y="-663.85" width="340" height="173.85" as="geometry" />
        </mxCell>
        <mxCell id="vX37YWDCJLkcGAk2SmuX-23" value="NAT Gateway" style="sketch=0;outlineConnect=0;fontColor=#232F3E;gradientColor=none;fillColor=#2c8725;strokeColor=none;dashed=0;verticalLabelPosition=bottom;verticalAlign=top;align=center;html=1;fontSize=15;fontStyle=0;aspect=fixed;pointerEvents=1;shape=mxgraph.aws4.nat_gateway;strokeWidth=1;" parent="1" vertex="1">
          <mxGeometry x="600" y="-608.85" width="60" height="60" as="geometry" />
        </mxCell>
        <mxCell id="vX37YWDCJLkcGAk2SmuX-25" value="NAT Gateway" style="sketch=0;outlineConnect=0;fontColor=#232F3E;gradientColor=none;fillColor=#2c8725;strokeColor=none;dashed=0;verticalLabelPosition=bottom;verticalAlign=top;align=center;html=1;fontSize=15;fontStyle=0;aspect=fixed;pointerEvents=1;shape=mxgraph.aws4.nat_gateway;strokeWidth=1;" parent="1" vertex="1">
          <mxGeometry x="180" y="-606.14" width="60" height="60" as="geometry" />
        </mxCell>
        <mxCell id="vX37YWDCJLkcGAk2SmuX-26" value="Aplication Load&lt;br style=&quot;font-size: 15px;&quot;&gt;Balancer" style="sketch=0;points=[[0,0,0],[0.25,0,0],[0.5,0,0],[0.75,0,0],[1,0,0],[0,1,0],[0.25,1,0],[0.5,1,0],[0.75,1,0],[1,1,0],[0,0.25,0],[0,0.5,0],[0,0.75,0],[1,0.25,0],[1,0.5,0],[1,0.75,0]];outlineConnect=0;fontColor=#232F3E;fillColor=#ED7100;strokeColor=#ffffff;dashed=0;verticalLabelPosition=bottom;verticalAlign=top;align=center;html=1;fontSize=15;fontStyle=0;aspect=fixed;shape=mxgraph.aws4.resourceIcon;resIcon=mxgraph.aws4.elastic_load_balancing;strokeWidth=1;" parent="1" vertex="1">
          <mxGeometry x="420" y="-607.85" width="60" height="60" as="geometry" />
        </mxCell>
        <mxCell id="vX37YWDCJLkcGAk2SmuX-28" value="Aplication Load&lt;br style=&quot;font-size: 15px;&quot;&gt;Balancer" style="sketch=0;points=[[0,0,0],[0.25,0,0],[0.5,0,0],[0.75,0,0],[1,0,0],[0,1,0],[0.25,1,0],[0.5,1,0],[0.75,1,0],[1,1,0],[0,0.25,0],[0,0.5,0],[0,0.75,0],[1,0.25,0],[1,0.5,0],[1,0.75,0]];outlineConnect=0;fontColor=#232F3E;fillColor=#ED7100;strokeColor=#ffffff;dashed=0;verticalLabelPosition=bottom;verticalAlign=top;align=center;html=1;fontSize=15;fontStyle=0;aspect=fixed;shape=mxgraph.aws4.resourceIcon;resIcon=mxgraph.aws4.elastic_load_balancing;strokeWidth=1;" parent="1" vertex="1">
          <mxGeometry x="840" y="-607.85" width="60" height="60" as="geometry" />
        </mxCell>
        <mxCell id="vX37YWDCJLkcGAk2SmuX-31" value="Internet Gateway" style="outlineConnect=0;fontColor=#232F3E;gradientColor=none;fillColor=#232F3E;strokeColor=none;dashed=0;verticalLabelPosition=bottom;verticalAlign=top;align=center;html=1;fontSize=15;fontStyle=0;aspect=fixed;pointerEvents=1;shape=mxgraph.aws4.internet_alt2;strokeWidth=1;" parent="1" vertex="1">
          <mxGeometry x="260" y="-820" width="70" height="70" as="geometry" />
        </mxCell>
        <mxCell id="vX37YWDCJLkcGAk2SmuX-32" value="Users" style="outlineConnect=0;fontColor=#232F3E;gradientColor=none;fillColor=#232F3E;strokeColor=none;dashed=0;verticalLabelPosition=bottom;verticalAlign=top;align=center;html=1;fontSize=15;fontStyle=0;aspect=fixed;pointerEvents=1;shape=mxgraph.aws4.users;strokeWidth=1;" parent="1" vertex="1">
          <mxGeometry x="280" y="-1130" width="70" height="70" as="geometry" />
        </mxCell>
        <mxCell id="vX37YWDCJLkcGAk2SmuX-33" value="Elastic IP" style="outlineConnect=0;gradientColor=none;strokeColor=#248814;dashed=0;verticalLabelPosition=bottom;verticalAlign=middle;align=center;html=1;fontSize=15;fontStyle=0;aspect=fixed;pointerEvents=1;shape=mxgraph.aws4.elastic_ip_address;rotation=90;spacingLeft=30;fillColor=#248814;fontColor=#248814;horizontal=0;labelPosition=center;spacingTop=46;strokeWidth=1;" parent="1" vertex="1">
          <mxGeometry x="239.9999999999999" y="-590" width="38.49" height="16.29" as="geometry" />
        </mxCell>
        <mxCell id="vX37YWDCJLkcGAk2SmuX-34" value="Elastic IP" style="outlineConnect=0;gradientColor=none;strokeColor=#248814;dashed=0;verticalLabelPosition=bottom;verticalAlign=middle;align=center;html=1;fontSize=15;fontStyle=0;aspect=fixed;pointerEvents=1;shape=mxgraph.aws4.elastic_ip_address;rotation=90;spacingLeft=30;fillColor=#248814;fontColor=#248814;horizontal=0;labelPosition=center;spacingTop=46;strokeWidth=1;" parent="1" vertex="1">
          <mxGeometry x="659.9999999999999" y="-584.28" width="38.49" height="16.29" as="geometry" />
        </mxCell>
        <mxCell id="d25eldFxu4X1imhtcSLH-1" value="10.0.1.0/24" style="text;html=1;strokeColor=none;fillColor=none;align=center;verticalAlign=middle;whiteSpace=wrap;rounded=0;strokeWidth=1;fontSize=15;fontStyle=0" parent="1" vertex="1">
          <mxGeometry x="430" y="-662.14" width="60" height="30" as="geometry" />
        </mxCell>
        <mxCell id="d25eldFxu4X1imhtcSLH-2" value="10.0.4.0/24" style="text;html=1;strokeColor=none;fillColor=none;align=center;verticalAlign=middle;whiteSpace=wrap;rounded=0;strokeWidth=1;fontSize=15;fontStyle=0" parent="1" vertex="1">
          <mxGeometry x="860" y="-662.14" width="60" height="30" as="geometry" />
        </mxCell>
        <mxCell id="d25eldFxu4X1imhtcSLH-3" value="10.0.2.0/24" style="text;html=1;strokeColor=none;fillColor=none;align=center;verticalAlign=middle;whiteSpace=wrap;rounded=0;strokeWidth=1;fontSize=15;fontStyle=0" parent="1" vertex="1">
          <mxGeometry x="430" y="-400" width="60" height="30" as="geometry" />
        </mxCell>
        <mxCell id="d25eldFxu4X1imhtcSLH-4" value="10.0.5.0/24" style="text;html=1;strokeColor=none;fillColor=none;align=center;verticalAlign=middle;whiteSpace=wrap;rounded=0;strokeWidth=1;fontSize=15;fontStyle=0" parent="1" vertex="1">
          <mxGeometry x="850" y="-400" width="60" height="30" as="geometry" />
        </mxCell>
        <mxCell id="d25eldFxu4X1imhtcSLH-5" value="10.0.3.0/24" style="text;html=1;strokeColor=none;fillColor=none;align=center;verticalAlign=middle;whiteSpace=wrap;rounded=0;strokeWidth=1;fontSize=15;fontStyle=0" parent="1" vertex="1">
          <mxGeometry x="430" y="-140" width="60" height="30" as="geometry" />
        </mxCell>
        <mxCell id="d25eldFxu4X1imhtcSLH-6" value="10.0.6.0/24" style="text;html=1;strokeColor=none;fillColor=none;align=center;verticalAlign=middle;whiteSpace=wrap;rounded=0;strokeWidth=1;fontSize=15;fontStyle=0" parent="1" vertex="1">
          <mxGeometry x="850" y="-140" width="60" height="30" as="geometry" />
        </mxCell>
        <mxCell id="LYOI0oYy6tnpNPLDHsff-1" value="" style="outlineConnect=0;fontColor=#232F3E;gradientColor=none;fillColor=#E7157B;strokeColor=none;dashed=1;verticalLabelPosition=bottom;verticalAlign=top;align=center;html=1;fontSize=15;fontStyle=0;aspect=fixed;pointerEvents=1;shape=mxgraph.aws4.systems_manager_session_manager;shadow=0;strokeWidth=1;" parent="1" vertex="1">
          <mxGeometry x="130" y="-830" width="70" height="70" as="geometry" />
        </mxCell>
        <mxCell id="LYOI0oYy6tnpNPLDHsff-16" style="edgeStyle=orthogonalEdgeStyle;rounded=0;orthogonalLoop=1;jettySize=auto;html=1;entryX=0.5;entryY=0;entryDx=0;entryDy=0;entryPerimeter=0;strokeWidth=1;fontSize=15;fontStyle=0" parent="1" source="vX37YWDCJLkcGAk2SmuX-15" target="vX37YWDCJLkcGAk2SmuX-2" edge="1">
          <mxGeometry relative="1" as="geometry" />
        </mxCell>
        <mxCell id="LYOI0oYy6tnpNPLDHsff-17" style="edgeStyle=orthogonalEdgeStyle;rounded=0;orthogonalLoop=1;jettySize=auto;html=1;exitX=0.5;exitY=1;exitDx=0;exitDy=0;exitPerimeter=0;entryX=0.5;entryY=0;entryDx=0;entryDy=0;entryPerimeter=0;strokeWidth=1;fontSize=15;fontStyle=0" parent="1" source="vX37YWDCJLkcGAk2SmuX-16" target="vX37YWDCJLkcGAk2SmuX-9" edge="1">
          <mxGeometry relative="1" as="geometry" />
        </mxCell>
        <mxCell id="LYOI0oYy6tnpNPLDHsff-18" style="rounded=0;orthogonalLoop=1;jettySize=auto;html=1;strokeColor=default;exitX=0.5;exitY=0;exitDx=0;exitDy=0;exitPerimeter=0;startArrow=classic;startFill=1;strokeWidth=1;fontSize=15;fontStyle=0" parent="1" source="vX37YWDCJLkcGAk2SmuX-15" target="vX37YWDCJLkcGAk2SmuX-25" edge="1">
          <mxGeometry relative="1" as="geometry" />
        </mxCell>
        <mxCell id="LYOI0oYy6tnpNPLDHsff-19" style="rounded=0;orthogonalLoop=1;jettySize=auto;html=1;entryX=0.5;entryY=0;entryDx=0;entryDy=0;entryPerimeter=0;strokeWidth=1;fontSize=15;fontStyle=0" parent="1" source="vX37YWDCJLkcGAk2SmuX-26" target="vX37YWDCJLkcGAk2SmuX-15" edge="1">
          <mxGeometry relative="1" as="geometry" />
        </mxCell>
        <mxCell id="LYOI0oYy6tnpNPLDHsff-20" style="rounded=0;orthogonalLoop=1;jettySize=auto;html=1;entryX=0.5;entryY=0;entryDx=0;entryDy=0;entryPerimeter=0;strokeWidth=1;fontSize=15;fontStyle=0" parent="1" source="vX37YWDCJLkcGAk2SmuX-28" target="vX37YWDCJLkcGAk2SmuX-16" edge="1">
          <mxGeometry relative="1" as="geometry" />
        </mxCell>
        <mxCell id="LYOI0oYy6tnpNPLDHsff-21" style="rounded=0;orthogonalLoop=1;jettySize=auto;html=1;startArrow=classic;startFill=1;exitX=0.5;exitY=0;exitDx=0;exitDy=0;exitPerimeter=0;strokeWidth=1;fontSize=15;fontStyle=0" parent="1" source="vX37YWDCJLkcGAk2SmuX-16" target="vX37YWDCJLkcGAk2SmuX-23" edge="1">
          <mxGeometry relative="1" as="geometry" />
        </mxCell>
        <mxCell id="4YY34YcDVX_1eZAxeRPE-4" value="" style="outlineConnect=0;dashed=0;verticalLabelPosition=bottom;verticalAlign=top;align=center;html=1;shape=mxgraph.aws3.kms;fillColor=#759C3E;gradientColor=none;strokeWidth=1;fontSize=15;fontStyle=0" vertex="1" parent="1">
          <mxGeometry x="1030" y="-323" width="76.5" height="93" as="geometry" />
        </mxCell>
        <mxCell id="4YY34YcDVX_1eZAxeRPE-6" value="" style="outlineConnect=0;dashed=0;verticalLabelPosition=bottom;verticalAlign=top;align=center;html=1;shape=mxgraph.aws3.role;fillColor=#759C3E;gradientColor=none;strokeWidth=1;fontSize=15;fontStyle=0" vertex="1" parent="1">
          <mxGeometry x="1021" y="-567.99" width="94.5" height="79.5" as="geometry" />
        </mxCell>
        <mxCell id="4YY34YcDVX_1eZAxeRPE-7" value="AWS Secrets Manager" style="sketch=0;outlineConnect=0;fontColor=#232F3E;gradientColor=none;strokeColor=#ffffff;fillColor=#232F3E;dashed=0;verticalLabelPosition=middle;verticalAlign=bottom;align=center;html=1;whiteSpace=wrap;fontSize=15;fontStyle=0;spacing=3;shape=mxgraph.aws4.productIcon;prIcon=mxgraph.aws4.secrets_manager;strokeWidth=1;" vertex="1" parent="1">
          <mxGeometry x="1025.5" y="-134" width="90" height="130" as="geometry" />
        </mxCell>
        <mxCell id="4YY34YcDVX_1eZAxeRPE-16" value="IAM role for EB EC2 instances" style="text;html=1;align=center;verticalAlign=middle;resizable=0;points=[];autosize=1;strokeColor=none;fillColor=none;strokeWidth=1;fontSize=15;fontStyle=0" vertex="1" parent="1">
          <mxGeometry x="970" y="-470" width="230" height="30" as="geometry" />
        </mxCell>
        <mxCell id="4YY34YcDVX_1eZAxeRPE-17" value="KMS Key for DB" style="text;html=1;align=center;verticalAlign=middle;resizable=0;points=[];autosize=1;strokeColor=none;fillColor=none;strokeWidth=1;fontSize=15;fontStyle=0" vertex="1" parent="1">
          <mxGeometry x="1003.25" y="-210" width="130" height="30" as="geometry" />
        </mxCell>
        <mxCell id="4YY34YcDVX_1eZAxeRPE-18" value="DB credentials" style="text;html=1;align=center;verticalAlign=middle;resizable=0;points=[];autosize=1;strokeColor=none;fillColor=none;strokeWidth=1;fontSize=15;fontStyle=0" vertex="1" parent="1">
          <mxGeometry x="1013.25" y="10" width="120" height="30" as="geometry" />
        </mxCell>
        <mxCell id="4YY34YcDVX_1eZAxeRPE-21" value="Elastic Beanstalk Endpoint" style="sketch=0;outlineConnect=0;fontColor=#232F3E;gradientColor=none;strokeColor=#232F3E;fillColor=#ffffff;dashed=0;verticalLabelPosition=bottom;verticalAlign=top;align=center;html=1;fontSize=15;fontStyle=0;aspect=fixed;shape=mxgraph.aws4.resourceIcon;resIcon=mxgraph.aws4.endpoints;strokeWidth=1;" vertex="1" parent="1">
          <mxGeometry x="500" y="-1000" width="80" height="80" as="geometry" />
        </mxCell>
        <mxCell id="4YY34YcDVX_1eZAxeRPE-25" value="" style="endArrow=classic;html=1;rounded=0;strokeWidth=1;fontSize=15;fontStyle=0" edge="1" parent="1" source="vX37YWDCJLkcGAk2SmuX-25" target="vX37YWDCJLkcGAk2SmuX-31">
          <mxGeometry width="50" height="50" relative="1" as="geometry">
            <mxPoint x="285" y="-585.28" as="sourcePoint" />
            <mxPoint x="335" y="-635.28" as="targetPoint" />
          </mxGeometry>
        </mxCell>
        <mxCell id="4YY34YcDVX_1eZAxeRPE-26" value="" style="endArrow=classic;html=1;rounded=0;strokeWidth=1;fontSize=15;fontStyle=0" edge="1" parent="1" source="vX37YWDCJLkcGAk2SmuX-26" target="4YY34YcDVX_1eZAxeRPE-21">
          <mxGeometry width="50" height="50" relative="1" as="geometry">
            <mxPoint x="231" y="-596" as="sourcePoint" />
            <mxPoint x="296" y="-773" as="targetPoint" />
          </mxGeometry>
        </mxCell>
        <mxCell id="4YY34YcDVX_1eZAxeRPE-28" value="" style="endArrow=classic;html=1;rounded=0;strokeWidth=1;fontSize=15;fontStyle=0" edge="1" parent="1" source="vX37YWDCJLkcGAk2SmuX-28" target="4YY34YcDVX_1eZAxeRPE-21">
          <mxGeometry width="50" height="50" relative="1" as="geometry">
            <mxPoint x="722" y="-642" as="sourcePoint" />
            <mxPoint x="420" y="-860" as="targetPoint" />
          </mxGeometry>
        </mxCell>
        <mxCell id="4YY34YcDVX_1eZAxeRPE-30" value="" style="endArrow=classic;html=1;rounded=0;strokeWidth=1;fontSize=15;fontStyle=0" edge="1" parent="1" source="vX37YWDCJLkcGAk2SmuX-23" target="vX37YWDCJLkcGAk2SmuX-31">
          <mxGeometry width="50" height="50" relative="1" as="geometry">
            <mxPoint x="630" y="-571" as="sourcePoint" />
            <mxPoint x="328" y="-789" as="targetPoint" />
          </mxGeometry>
        </mxCell>
        <mxCell id="4YY34YcDVX_1eZAxeRPE-35" style="rounded=0;orthogonalLoop=1;jettySize=auto;html=1;entryX=0.07;entryY=0.92;entryDx=0;entryDy=0;entryPerimeter=0;exitX=1.006;exitY=0.336;exitDx=0;exitDy=0;exitPerimeter=0;strokeWidth=1;fontSize=15;fontStyle=0" edge="1" parent="1" source="vX37YWDCJLkcGAk2SmuX-11" target="4YY34YcDVX_1eZAxeRPE-6">
          <mxGeometry relative="1" as="geometry">
            <mxPoint x="861" y="-538" as="sourcePoint" />
            <mxPoint x="745" y="-350" as="targetPoint" />
          </mxGeometry>
        </mxCell>
        <mxCell id="4YY34YcDVX_1eZAxeRPE-38" style="rounded=0;orthogonalLoop=1;jettySize=auto;html=1;strokeWidth=1;fontSize=15;fontStyle=0" edge="1" parent="1" source="4YY34YcDVX_1eZAxeRPE-6" target="4YY34YcDVX_1eZAxeRPE-4">
          <mxGeometry relative="1" as="geometry">
            <mxPoint x="1019" y="-286" as="sourcePoint" />
            <mxPoint x="1111" y="-374" as="targetPoint" />
          </mxGeometry>
        </mxCell>
        <mxCell id="4YY34YcDVX_1eZAxeRPE-39" style="rounded=0;orthogonalLoop=1;jettySize=auto;html=1;exitX=1;exitY=0.5;exitDx=0;exitDy=0;strokeWidth=1;fontSize=15;fontStyle=0" edge="1" parent="1" source="5G6M97Ru5O6IGqaMy1Rf-42" target="4YY34YcDVX_1eZAxeRPE-4">
          <mxGeometry relative="1" as="geometry">
            <mxPoint x="1031.5" y="-30" as="sourcePoint" />
            <mxPoint x="1104.5" y="140" as="targetPoint" />
          </mxGeometry>
        </mxCell>
        <mxCell id="4YY34YcDVX_1eZAxeRPE-40" style="rounded=0;orthogonalLoop=1;jettySize=auto;html=1;strokeWidth=1;fontSize=15;fontStyle=0" edge="1" parent="1" source="4YY34YcDVX_1eZAxeRPE-7" target="4YY34YcDVX_1eZAxeRPE-4">
          <mxGeometry relative="1" as="geometry">
            <mxPoint x="1130" y="34" as="sourcePoint" />
            <mxPoint x="1338" y="-100" as="targetPoint" />
          </mxGeometry>
        </mxCell>
        <mxCell id="4YY34YcDVX_1eZAxeRPE-41" style="rounded=0;orthogonalLoop=1;jettySize=auto;html=1;strokeWidth=1;fontSize=15;fontStyle=0" edge="1" parent="1" source="vX37YWDCJLkcGAk2SmuX-32" target="4YY34YcDVX_1eZAxeRPE-21">
          <mxGeometry relative="1" as="geometry">
            <mxPoint x="278.49" y="-940" as="sourcePoint" />
            <mxPoint x="279.49" y="-1100" as="targetPoint" />
          </mxGeometry>
        </mxCell>
      </root>
    </mxGraphModel>
  </diagram>
</mxfile>
